<svg stroke="currentColor" fill="currentColor" stroke-width="0" viewBox="0 0 640 512" height="200px" width="200px" xmlns="http://www.w3.org/2000/svg">
  <path d="M192,408h64V360H192ZM576,192H544a95.99,95.99,0,0,0-96-96H344V16a16,16,0,0,0-16-16H312a16,16,0,0,0-16,16V96H192a95.99,95.99,0,0,0-96,96H64a47.996,47.996,0,0,0-48,48V368a47.996,47.996,0,0,0,48,48H96a95.99,95.99,0,0,0,96,96H448a95.99,95.99,0,0,0,96-96h32a47.996,47.996,0,0,0,48-48V240A47.996,47.996,0,0,0,576,192ZM96,368H64V240H96Zm400,48a48.14,48.14,0,0,1-48,48H192a48.14,48.14,0,0,1-48-48V192a48.14,48.14,0,0,1,48-48H448a48.14,48.14,0,0,1,48,48ZM576,368H544V240h32ZM384,408h64V360H384Zm0-200a32,32,0,1,0,32,32A32,32,0,0,0,384,208Zm-128,0a32,32,0,1,0,32,32A32,32,0,0,0,256,208Z"/>
</svg>

